<svg width="357" height="495" viewBox="0 0 357 495" fill="none" xmlns="http://www.w3.org/2000/svg">
<g clip-path="url(#clip0)">
<path d="M177.918 147.748C177.918 147.748 97.0619 99.7988 18.8367 135.428L26.2364 151.244C26.2364 151.244 101.282 136.659 147.105 167.485L177.918 147.748Z" fill="#F8C198"/>
<path d="M0.0120581 155.146C0.174735 158.602 1.89279 162.127 4.94708 163.752C16.8868 170.106 29.119 147.733 22.8596 138.633C13.2275 124.629 -0.463448 145.045 0.0120581 155.146Z" fill="#F8C198"/>
<path d="M137.664 14.0565H31.3662C20.355 14.0565 11.4287 22.9826 11.4287 33.9934V262.571C11.4287 273.582 20.355 282.508 31.3662 282.508H137.664C148.675 282.508 157.601 273.582 157.601 262.571V33.9934C157.601 22.9826 148.675 14.0565 137.664 14.0565Z" fill="#263238"/>
<path d="M141.098 33.0332H27.932V251.497H141.098V33.0332Z" fill="#6C63FF"/>
<path d="M84.5149 276.491C89.4982 276.491 93.5379 272.346 93.5379 267.234C93.5379 262.122 89.4982 257.977 84.5149 257.977C79.5317 257.977 75.4919 262.122 75.4919 267.234C75.4919 272.346 79.5317 276.491 84.5149 276.491Z" fill="#DBDBDB"/>
<path d="M67.3712 24.702C68.3679 24.702 69.1758 23.8731 69.1758 22.8507C69.1758 21.8282 68.3679 20.9993 67.3712 20.9993C66.3746 20.9993 65.5667 21.8282 65.5667 22.8507C65.5667 23.8731 66.3746 24.702 67.3712 24.702Z" fill="#DBDBDB"/>
<path d="M102.265 21.462H76.6899C76.0283 21.462 75.4919 21.9984 75.4919 22.6599V23.0412C75.4919 23.7028 76.0283 24.2391 76.6899 24.2391H102.265C102.927 24.2391 103.463 23.7028 103.463 23.0412V22.6599C103.463 21.9984 102.927 21.462 102.265 21.462Z" fill="#DBDBDB"/>
<path opacity="0.2" d="M34.3805 38.6756H141.098V33.0334H27.9321V251.497H34.3805V38.6756Z" fill="black"/>
<path d="M132.254 437.854C127.774 436.396 122.899 436.769 118.693 438.892C118.654 438.913 118.612 438.941 118.572 438.962C113.827 427.712 104.877 404.122 102.366 380.981C105.464 382.124 108.54 383.297 111.535 384.584C114.086 385.68 116.592 386.877 119.068 388.143L132.254 437.854Z" fill="url(#paint0_linear)"/>
<path d="M165.693 262.28C165.693 262.28 61.6704 259.804 77.1007 369.9L100.755 461.965L121.623 440.764C121.623 440.764 85.9636 366.438 111.461 334.186C136.958 301.935 161.83 312.158 161.83 312.158L165.693 262.28Z" fill="#F8C198"/>
<path d="M93.5372 461.766C90.854 465.773 89.2817 470.773 90.3704 475.471C91.4592 480.17 95.7017 484.269 100.524 484.174C103.823 484.109 106.787 482.236 109.477 480.324C117.952 474.297 125.655 467.252 132.414 459.348C137.379 453.541 142.022 445.539 138.666 438.676C135.339 431.876 125.542 430.618 118.817 434.095C109.852 438.73 99.1315 453.41 93.5372 461.766Z" fill="#263238"/>
<path d="M218.128 253.404C218.128 253.404 98.3529 250.393 116.362 374.071L143.801 477.517L167.781 453.753C167.781 453.753 126.559 370.203 155.845 334.039C185.13 297.875 213.791 309.411 213.791 309.411L218.128 253.404Z" fill="#F8C198"/>
<path d="M178.7 279.942H178.7C191.197 280.873 203.555 276.821 213.074 268.67C222.593 260.52 228.5 248.934 229.504 236.442L233.414 185.957C234.346 173.46 230.293 161.102 222.142 151.584C213.992 142.065 202.405 136.158 189.914 135.154H189.914C178.76 134.326 167.672 137.462 158.604 144.01C149.537 150.558 143.073 160.097 140.352 170.946C139.328 175.161 139.287 179.555 140.233 183.789L149.727 227.149C147.719 253.083 152.766 277.933 178.7 279.942Z" fill="#FF6347"/>
<path d="M201.258 132.434C201.982 123.093 195.719 114.99 187.27 114.336C178.822 113.682 171.386 120.724 170.663 130.064C169.939 139.405 176.202 147.508 184.651 148.162C193.099 148.816 200.535 141.775 201.258 132.434Z" fill="#F5B89C"/>
<path d="M163.062 263.366C143.821 263.293 124.276 264.218 106.019 270.295C87.7624 276.371 70.7283 288.199 62.0047 305.348C53.2811 322.498 54.5005 345.251 67.7879 359.167C79.2315 371.153 96.6238 374.694 111.849 381.236C146.719 396.218 173.781 429.055 211.25 435.09C192.837 417.607 179.632 395.359 173.105 370.821C170.336 360.339 169.267 347.899 176.532 339.851C183.249 332.411 194.388 331.616 203.837 328.272C221.112 322.158 234.129 305.456 235.837 287.211C237.214 272.513 230.205 260.129 214.943 262.163C197.757 264.453 180.383 263.431 163.062 263.366Z" fill="#6C63FF"/>
<path d="M214.503 161.015C214.503 161.015 239.797 242.749 210.716 256.309L165.339 291.604L149.154 271.664C149.154 271.664 197.284 245.206 202.584 227.29C207.883 209.374 190.138 169.38 190.138 169.38C190.138 169.38 203.188 149.358 214.503 161.015Z" fill="#F8C198"/>
<path d="M165.98 283.327C166.41 277.771 158.717 272.645 148.796 271.876C138.876 271.108 130.485 274.989 130.055 280.544C129.625 286.1 137.318 291.227 147.238 291.995C157.158 292.763 165.549 288.882 165.98 283.327Z" fill="#F8C198"/>
<path d="M131.563 471.898C128.88 475.906 127.308 480.905 128.397 485.603C129.485 490.302 133.728 494.401 138.55 494.306C141.849 494.241 144.813 492.369 147.503 490.456C155.978 484.429 163.682 477.384 170.44 469.48C175.405 463.673 180.049 455.672 176.692 448.808C173.366 442.008 163.568 440.75 156.843 444.227C147.878 448.862 137.158 463.542 131.563 471.898Z" fill="#263238"/>
<path d="M190.209 127.256C218.703 127.256 241.802 104.158 241.802 75.6646C241.802 47.1712 218.703 24.0728 190.209 24.0728C161.714 24.0728 138.615 47.1712 138.615 75.6646C138.615 104.158 161.714 127.256 190.209 127.256Z" fill="#F8C198"/>
<path d="M341.737 102.698C335.425 96.5356 328.074 91.5114 321.888 85.2282C315.542 78.7827 311.401 71.0754 307.907 62.8066C301.074 46.6398 296.373 29.1175 284.16 15.8931C269.091 -0.423021 249.061 -1.63656 228.226 1.19246C209.803 3.72906 191.555 7.39808 173.584 12.1787C173.077 11.9717 172.583 11.7479 172.067 11.5539C161.972 7.75825 150.104 13.518 146.487 23.5679C145.489 26.3583 145.144 29.34 145.476 32.2846C144.047 35.028 144.112 38.4157 146.934 41.3988C160.331 55.5599 171.12 68.874 175.722 88.1667C180.004 106.119 185.86 120.718 201.487 131.678C217.1 142.628 235.66 151.32 253.249 158.557C272.27 166.385 292.661 171.481 313.345 169.927C328.479 168.79 345.357 163.235 353.203 149.186C362.22 133.039 353.881 114.554 341.737 102.698Z" fill="url(#paint1_linear)"/>
<path d="M338.871 102.085C332.758 96.117 325.64 91.2514 319.649 85.1666C313.504 78.9246 309.493 71.4607 306.109 63.453C299.492 47.7966 294.939 30.8275 283.112 18.0207C268.519 2.21974 249.121 1.0445 228.944 3.78421C211.103 6.24071 193.431 9.7939 176.027 14.4236C175.537 14.2231 175.058 14.0063 174.558 13.8185C164.782 10.1427 153.289 15.7205 149.786 25.4532C148.82 28.1555 148.485 31.043 148.807 33.8947C147.423 36.5514 147.486 39.8322 150.219 42.721C163.193 56.435 173.641 69.3287 178.097 88.0123C182.245 105.397 187.916 119.536 203.049 130.15C218.169 140.754 236.144 149.172 253.177 156.18C271.598 163.761 291.345 168.696 311.375 167.191C326.032 166.09 342.376 160.71 349.975 147.105C358.708 131.468 350.632 113.566 338.871 102.085Z" fill="#FF6347"/>
</g>
<defs>
<linearGradient id="paint0_linear" x1="117.31" y1="438.962" x2="117.31" y2="380.981" gradientUnits="userSpaceOnUse">
<stop stop-color="#808080" stop-opacity="0.25"/>
<stop offset="0.53514" stop-color="#808080" stop-opacity="0.12"/>
<stop offset="1" stop-color="#808080" stop-opacity="0.1"/>
</linearGradient>
<linearGradient id="paint1_linear" x1="146659" y1="60343.9" x2="146659" y2="24402.1" gradientUnits="userSpaceOnUse">
<stop stop-color="#808080" stop-opacity="0.25"/>
<stop offset="0.53514" stop-color="#808080" stop-opacity="0.12"/>
<stop offset="1" stop-color="#808080" stop-opacity="0.1"/>
</linearGradient>
<clipPath id="clip0">
<rect width="357" height="494.308" fill="white"/>
</clipPath>
</defs>
</svg>
